<svg width="143" height="27" viewBox="0 0 143 27" fill="none" xmlns="http://www.w3.org/2000/svg">
<path d="M1.78783 24.4384C0.522508 22.6068 -0.105608 20.4108 2.82917e-05 18.188V8.92406C-0.1532 6.67734 0.435585 4.44243 1.67609 2.56207C2.9052 1.11109 4.80474 0.441406 7.59818 0.441406C10.3916 0.441406 12.1794 1.11109 13.2968 2.33884C14.5099 3.89388 15.1066 5.84102 14.9728 7.80792V10.0402H9.49771V7.47308C9.54193 6.71383 9.42778 5.95368 9.1625 5.2408C9.0207 4.95305 8.79596 4.71425 8.51719 4.55513C8.23841 4.396 7.91835 4.32383 7.59818 4.34789C6.81601 4.34789 6.25733 4.57112 6.03385 5.12919C5.78108 5.92223 5.66766 6.753 5.69864 7.58469V19.5274C5.63963 20.3343 5.79375 21.1425 6.14559 21.8713C6.36906 22.4293 6.92775 22.6526 7.70991 22.6526C8.49208 22.6526 8.93903 22.4293 9.1625 21.8713C9.41655 21.117 9.53016 20.3226 9.49771 19.5274V16.8486H14.9728V19.0809C15.0865 21.0799 14.4932 23.0552 13.2968 24.6616C12.1794 26.001 10.2799 26.6707 7.59818 26.6707C4.91648 26.5591 2.9052 25.8894 1.78783 24.4384Z" fill="#111111"/>
<path d="M21.5653 0.776367H27.9344L32.6273 26.2243H27.4874L26.5935 20.8669H22.9062L22.0123 26.2243H16.7606L21.5653 0.776367ZM26.1466 17.5184L24.8057 7.58481L23.4649 17.5184H26.1466Z" fill="#111111"/>
<path d="M36.5382 5.01769H32.7391V0.776367H46.0358V4.90608H42.2368V26.2243H36.5382V5.01769Z" fill="#111111"/>
<path d="M56.2039 0.776367H66.0368V3.4551H59.6678V11.8261H64.8077V14.3933H59.6678V23.7688H66.0368V26.3359H56.0922V0.776367H56.2039Z" fill="#111111"/>
<path d="M68.942 0.776367H71.4002L78.6632 17.6301V0.776367H81.5684V26.2243H79.3336L71.9589 8.81257V26.2243H68.942V0.776367Z" fill="#111111"/>
<path d="M84.9204 0.776367H94.7533V3.4551H88.3843V11.8261H93.5242V14.3933H88.3843V23.7688H94.7533V26.3359H84.9204V0.776367Z" fill="#111111"/>
<path d="M97.6585 0.776118H102.798C104.82 0.636604 106.83 1.18759 108.497 2.33871C109.726 3.34324 110.285 5.12906 110.285 7.47295C110.285 10.7098 109.279 12.7188 107.156 13.3885L110.732 26.1125H107.268L103.916 14.1698H101.122V26.1125H97.5468V0.776118H97.6585ZM102.575 11.7143C103.727 11.8091 104.875 11.4927 105.815 10.8214C106.486 10.2633 106.821 9.14716 106.821 7.47295C106.852 6.64126 106.739 5.81049 106.486 5.01745C106.234 4.44839 105.802 3.97775 105.257 3.67808C104.487 3.32777 103.642 3.17434 102.798 3.23162H101.234V11.6027H102.575V11.7143Z" fill="#111111"/>
<path d="M114.754 24.3269C113.593 22.3754 113.048 20.1192 113.19 17.8533V9.37066C113.162 7.7532 113.35 6.13926 113.749 4.57127C114.123 3.39956 114.868 2.38105 115.872 1.6693C117.119 0.93162 118.559 0.581906 120.006 0.664779C122.353 0.664779 124.029 1.22285 125.034 2.4506C126.191 4.07178 126.744 6.04578 126.599 8.0313V8.92421H123.246V8.14291C123.251 7.20814 123.177 6.27464 123.023 5.35256C122.929 4.76988 122.607 4.24817 122.129 3.90158C121.501 3.4898 120.756 3.29387 120.006 3.34351C119.205 3.29223 118.412 3.52986 117.771 4.0132C117.508 4.23443 117.294 4.50693 117.14 4.814C116.986 5.12107 116.897 5.45625 116.877 5.79902C116.73 6.79683 116.655 7.80399 116.654 8.81259V18.2998C116.572 19.7452 116.8 21.1914 117.324 22.5411C117.771 23.434 118.665 23.7689 120.006 23.7689C120.535 23.8348 121.073 23.7428 121.55 23.5044C122.027 23.2661 122.423 22.8921 122.688 22.4295C123.278 21.0181 123.545 19.4927 123.47 17.9649V16.1791H120.229V13.612H126.71V26.2244H124.476L124.14 23.3224C123.847 24.295 123.237 25.1418 122.407 25.7283C121.577 26.3148 120.575 26.6072 119.559 26.5592C118.636 26.6134 117.714 26.4379 116.875 26.0483C116.036 25.6587 115.308 25.0672 114.754 24.3269Z" fill="#111111"/>
<path d="M133.861 17.2949L128.386 0.887695H131.738L135.649 13.1652L139.448 0.887695H142.8L137.325 17.2949V26.224H133.973V17.2949H133.861Z" fill="#111111"/>
</svg>
