<svg width="143" height="27" fill="none" xmlns="http://www.w3.org/2000/svg"><path d="M1.788 24.438A10.149 10.149 0 0 1 0 18.188V8.924a10.282 10.282 0 0 1 1.676-6.362c1.23-1.45 3.129-2.12 5.922-2.12 2.794 0 4.581.67 5.699 1.897a8.008 8.008 0 0 1 1.676 5.469v2.232H9.498V7.473c.044-.76-.07-1.52-.335-2.232a1.608 1.608 0 0 0-1.565-.893c-.782 0-1.34.223-1.564.781a7.203 7.203 0 0 0-.335 2.456v11.942a4.617 4.617 0 0 0 .447 2.344c.223.558.782.782 1.564.782s1.229-.224 1.452-.782a6.511 6.511 0 0 0 .336-2.344V16.85h5.475v2.232a8.532 8.532 0 0 1-1.676 5.58c-1.118 1.34-3.017 2.01-5.699 2.01-2.682-.112-4.693-.782-5.81-2.233ZM21.565.776h6.37l4.692 25.448h-5.14l-.893-5.357h-3.688l-.894 5.357h-5.251L21.565.776Zm4.582 16.742-1.341-9.933-1.341 9.933h2.682ZM36.538 5.018H32.74V.776h13.297v4.13h-3.8v21.318h-5.698V5.018ZM56.204.776h9.833v2.68h-6.37v8.37h5.14v2.567h-5.14v9.376h6.37v2.567h-9.945V.776h.112ZM68.942.776H71.4l7.263 16.854V.776h2.905v25.448h-2.234L71.959 8.813v17.411h-3.017V.776ZM84.92.776h9.833v2.68h-6.369v8.37h5.14v2.567h-5.14v9.376h6.37v2.567H84.92V.776ZM97.659.776h5.139a8.947 8.947 0 0 1 5.699 1.563c1.229 1.004 1.788 2.79 1.788 5.134 0 3.237-1.006 5.246-3.129 5.916l3.576 12.724h-3.464l-3.352-11.943h-2.794v11.943h-3.575V.776h.112Zm4.916 10.938a4.885 4.885 0 0 0 3.24-.893c.671-.558 1.006-1.674 1.006-3.348a7.196 7.196 0 0 0-.335-2.456 2.842 2.842 0 0 0-1.229-1.339 5.104 5.104 0 0 0-2.459-.446h-1.564v8.37h1.341v.112ZM114.754 24.327a11.281 11.281 0 0 1-1.564-6.474V9.371c-.028-1.618.16-3.232.559-4.8a5.671 5.671 0 0 1 2.123-2.902 7.302 7.302 0 0 1 4.134-1.004c2.347 0 4.023.558 5.028 1.786a8.536 8.536 0 0 1 1.565 5.58v.893h-3.353v-.781a16.405 16.405 0 0 0-.223-2.79 2.232 2.232 0 0 0-.894-1.451 3.455 3.455 0 0 0-2.123-.558 3.356 3.356 0 0 0-2.235.67 2.523 2.523 0 0 0-.894 1.785 20.819 20.819 0 0 0-.223 3.014V18.3a10.133 10.133 0 0 0 .67 4.241c.447.893 1.341 1.228 2.682 1.228a2.707 2.707 0 0 0 2.682-1.34 10.27 10.27 0 0 0 .782-4.464v-1.786h-3.241v-2.567h6.481v12.612h-2.234l-.336-2.902a4.555 4.555 0 0 1-4.581 3.237 5.594 5.594 0 0 1-4.805-2.232ZM133.861 17.295 128.386.888h3.352l3.911 12.277L139.448.888h3.352l-5.475 16.407v8.929h-3.352v-8.93h-.112Z" fill="#111"/></svg>